<svg width="89" height="89" viewBox="0 0 89 89" fill="none" xmlns="http://www.w3.org/2000/svg">
<rect x="0.90918" y="0.5" width="87.1825" height="87.1825" rx="43.5913" stroke="#EDEBEC"/>
<path d="M39.7473 33.4984H50.2457M39.7473 33.4984C36.8482 33.4984 34.498 35.8486 34.498 38.7476V49.2461C34.498 52.1451 36.8482 54.4953 39.7473 54.4953M39.7473 33.4984L39.7473 28.2493H50.2457L50.2457 33.4984M50.2457 33.4984C53.1448 33.4984 55.4949 35.8486 55.4949 38.7476V49.2461C55.4949 52.1451 53.1448 54.4953 50.2457 54.4953M50.2457 54.4953H39.7473M50.2457 54.4953L50.2457 59.7445H39.7473L39.7473 54.4953M41.9966 40.2473L41.9966 48.496M44.9961 43.9967V48.496M47.9957 42.4969V48.496" stroke="#9F3247" stroke-width="1.49978" stroke-linecap="round" stroke-linejoin="round"/>
</svg>
